# xmcd
#
# Track frame offsets:
#	150
#	15469
#	30975
#	47638
#	65062
#	81970
#	100207
#	119233
#	136533
#	158643
#
# Disc length: 2364 seconds
#
# Revision: 0
# Processed by: cddbd v1.4PL0 Copyright (c) Steve Scherf et al.
# Submitted via: dBpowerAMP V4.0
#
DISCID=79093a0a
DTITLE=Big Brovaz - Nu Flow
DYEAR=2002
DGENRE=R&B
TTITLE0=Nu Flow
TTITLE1=Gotta Get
TTITLE2=Find A Way
TTITLE3=Taking it Global
TTITLE4=O.K.
TTITLE5=Baby Boy
TTITLE6=Little Mamma
TTITLE7=Dont Watch That
TTITLE8=Don't Matter
TTITLE9=Summertime
EXTD=ERIC THOMAS
EXTT0=
EXTT1=
EXTT2=
EXTT3=
EXTT4=
EXTT5=
EXTT6=
EXTT7=
EXTT8=
EXTT9=
PLAYORDER=
